%TF.GenerationSoftware,KiCad,Pcbnew,9.0.6*%
%TF.CreationDate,2026-03-10T13:54:57+05:30*%
%TF.ProjectId,NeuroBand,4e657572-6f42-4616-9e64-2e6b69636164,rev?*%
%TF.SameCoordinates,Original*%
%TF.FileFunction,Drillmap*%
%TF.FilePolarity,Positive*%
%FSLAX45Y45*%
G04 Gerber Fmt 4.5, Leading zero omitted, Abs format (unit mm)*
G04 Created by KiCad (PCBNEW 9.0.6) date 2026-03-10 13:54:57*
%MOMM*%
%LPD*%
G01*
G04 APERTURE LIST*
%ADD10C,0.050000*%
%ADD11C,0.200000*%
%ADD12C,0.100000*%
G04 APERTURE END LIST*
D10*
X14160543Y-7679126D02*
X14179349Y-11602500D01*
X13570053Y-12211796D01*
X10327553Y-12211796D01*
X9730053Y-11614296D01*
X9730053Y-7684296D01*
X10332553Y-7081796D01*
X10472553Y-7081796D01*
X10493386Y-7081796D01*
X13560053Y-7081796D01*
X14160543Y-7679126D01*
D11*
D12*
X11079253Y-11484296D02*
X11144253Y-11549296D01*
X11144253Y-11484296D02*
X11079253Y-11549296D01*
X11657253Y-11484296D02*
X11722253Y-11549296D01*
X11722253Y-11484296D02*
X11657253Y-11549296D01*
D11*
X9988330Y-12525780D02*
X9988330Y-12325780D01*
X9988330Y-12325780D02*
X10035949Y-12325780D01*
X10035949Y-12325780D02*
X10064520Y-12335304D01*
X10064520Y-12335304D02*
X10083568Y-12354352D01*
X10083568Y-12354352D02*
X10093092Y-12373399D01*
X10093092Y-12373399D02*
X10102615Y-12411494D01*
X10102615Y-12411494D02*
X10102615Y-12440066D01*
X10102615Y-12440066D02*
X10093092Y-12478161D01*
X10093092Y-12478161D02*
X10083568Y-12497209D01*
X10083568Y-12497209D02*
X10064520Y-12516256D01*
X10064520Y-12516256D02*
X10035949Y-12525780D01*
X10035949Y-12525780D02*
X9988330Y-12525780D01*
X10188330Y-12525780D02*
X10188330Y-12392447D01*
X10188330Y-12430542D02*
X10197853Y-12411494D01*
X10197853Y-12411494D02*
X10207377Y-12401971D01*
X10207377Y-12401971D02*
X10226425Y-12392447D01*
X10226425Y-12392447D02*
X10245473Y-12392447D01*
X10312139Y-12525780D02*
X10312139Y-12392447D01*
X10312139Y-12325780D02*
X10302615Y-12335304D01*
X10302615Y-12335304D02*
X10312139Y-12344828D01*
X10312139Y-12344828D02*
X10321663Y-12335304D01*
X10321663Y-12335304D02*
X10312139Y-12325780D01*
X10312139Y-12325780D02*
X10312139Y-12344828D01*
X10435949Y-12525780D02*
X10416901Y-12516256D01*
X10416901Y-12516256D02*
X10407377Y-12497209D01*
X10407377Y-12497209D02*
X10407377Y-12325780D01*
X10540711Y-12525780D02*
X10521663Y-12516256D01*
X10521663Y-12516256D02*
X10512139Y-12497209D01*
X10512139Y-12497209D02*
X10512139Y-12325780D01*
X10769282Y-12525780D02*
X10769282Y-12325780D01*
X10769282Y-12325780D02*
X10835949Y-12468637D01*
X10835949Y-12468637D02*
X10902615Y-12325780D01*
X10902615Y-12325780D02*
X10902615Y-12525780D01*
X11083568Y-12525780D02*
X11083568Y-12421018D01*
X11083568Y-12421018D02*
X11074044Y-12401971D01*
X11074044Y-12401971D02*
X11054996Y-12392447D01*
X11054996Y-12392447D02*
X11016901Y-12392447D01*
X11016901Y-12392447D02*
X10997853Y-12401971D01*
X11083568Y-12516256D02*
X11064520Y-12525780D01*
X11064520Y-12525780D02*
X11016901Y-12525780D01*
X11016901Y-12525780D02*
X10997853Y-12516256D01*
X10997853Y-12516256D02*
X10988330Y-12497209D01*
X10988330Y-12497209D02*
X10988330Y-12478161D01*
X10988330Y-12478161D02*
X10997853Y-12459113D01*
X10997853Y-12459113D02*
X11016901Y-12449590D01*
X11016901Y-12449590D02*
X11064520Y-12449590D01*
X11064520Y-12449590D02*
X11083568Y-12440066D01*
X11178806Y-12392447D02*
X11178806Y-12592447D01*
X11178806Y-12401971D02*
X11197853Y-12392447D01*
X11197853Y-12392447D02*
X11235949Y-12392447D01*
X11235949Y-12392447D02*
X11254996Y-12401971D01*
X11254996Y-12401971D02*
X11264520Y-12411494D01*
X11264520Y-12411494D02*
X11274044Y-12430542D01*
X11274044Y-12430542D02*
X11274044Y-12487685D01*
X11274044Y-12487685D02*
X11264520Y-12506732D01*
X11264520Y-12506732D02*
X11254996Y-12516256D01*
X11254996Y-12516256D02*
X11235949Y-12525780D01*
X11235949Y-12525780D02*
X11197853Y-12525780D01*
X11197853Y-12525780D02*
X11178806Y-12516256D01*
X11359758Y-12506732D02*
X11369282Y-12516256D01*
X11369282Y-12516256D02*
X11359758Y-12525780D01*
X11359758Y-12525780D02*
X11350234Y-12516256D01*
X11350234Y-12516256D02*
X11359758Y-12506732D01*
X11359758Y-12506732D02*
X11359758Y-12525780D01*
X11359758Y-12401971D02*
X11369282Y-12411494D01*
X11369282Y-12411494D02*
X11359758Y-12421018D01*
X11359758Y-12421018D02*
X11350234Y-12411494D01*
X11350234Y-12411494D02*
X11359758Y-12401971D01*
X11359758Y-12401971D02*
X11359758Y-12421018D01*
D12*
X9662553Y-12821796D02*
X9727553Y-12886796D01*
X9727553Y-12821796D02*
X9662553Y-12886796D01*
D11*
X10026425Y-12745780D02*
X10045473Y-12745780D01*
X10045473Y-12745780D02*
X10064520Y-12755304D01*
X10064520Y-12755304D02*
X10074044Y-12764828D01*
X10074044Y-12764828D02*
X10083568Y-12783875D01*
X10083568Y-12783875D02*
X10093092Y-12821971D01*
X10093092Y-12821971D02*
X10093092Y-12869590D01*
X10093092Y-12869590D02*
X10083568Y-12907685D01*
X10083568Y-12907685D02*
X10074044Y-12926732D01*
X10074044Y-12926732D02*
X10064520Y-12936256D01*
X10064520Y-12936256D02*
X10045473Y-12945780D01*
X10045473Y-12945780D02*
X10026425Y-12945780D01*
X10026425Y-12945780D02*
X10007377Y-12936256D01*
X10007377Y-12936256D02*
X9997853Y-12926732D01*
X9997853Y-12926732D02*
X9988330Y-12907685D01*
X9988330Y-12907685D02*
X9978806Y-12869590D01*
X9978806Y-12869590D02*
X9978806Y-12821971D01*
X9978806Y-12821971D02*
X9988330Y-12783875D01*
X9988330Y-12783875D02*
X9997853Y-12764828D01*
X9997853Y-12764828D02*
X10007377Y-12755304D01*
X10007377Y-12755304D02*
X10026425Y-12745780D01*
X10178806Y-12926732D02*
X10188330Y-12936256D01*
X10188330Y-12936256D02*
X10178806Y-12945780D01*
X10178806Y-12945780D02*
X10169282Y-12936256D01*
X10169282Y-12936256D02*
X10178806Y-12926732D01*
X10178806Y-12926732D02*
X10178806Y-12945780D01*
X10359758Y-12745780D02*
X10321663Y-12745780D01*
X10321663Y-12745780D02*
X10302615Y-12755304D01*
X10302615Y-12755304D02*
X10293092Y-12764828D01*
X10293092Y-12764828D02*
X10274044Y-12793399D01*
X10274044Y-12793399D02*
X10264520Y-12831494D01*
X10264520Y-12831494D02*
X10264520Y-12907685D01*
X10264520Y-12907685D02*
X10274044Y-12926732D01*
X10274044Y-12926732D02*
X10283568Y-12936256D01*
X10283568Y-12936256D02*
X10302615Y-12945780D01*
X10302615Y-12945780D02*
X10340711Y-12945780D01*
X10340711Y-12945780D02*
X10359758Y-12936256D01*
X10359758Y-12936256D02*
X10369282Y-12926732D01*
X10369282Y-12926732D02*
X10378806Y-12907685D01*
X10378806Y-12907685D02*
X10378806Y-12860066D01*
X10378806Y-12860066D02*
X10369282Y-12841018D01*
X10369282Y-12841018D02*
X10359758Y-12831494D01*
X10359758Y-12831494D02*
X10340711Y-12821971D01*
X10340711Y-12821971D02*
X10302615Y-12821971D01*
X10302615Y-12821971D02*
X10283568Y-12831494D01*
X10283568Y-12831494D02*
X10274044Y-12841018D01*
X10274044Y-12841018D02*
X10264520Y-12860066D01*
X10559758Y-12745780D02*
X10464520Y-12745780D01*
X10464520Y-12745780D02*
X10454996Y-12841018D01*
X10454996Y-12841018D02*
X10464520Y-12831494D01*
X10464520Y-12831494D02*
X10483568Y-12821971D01*
X10483568Y-12821971D02*
X10531187Y-12821971D01*
X10531187Y-12821971D02*
X10550234Y-12831494D01*
X10550234Y-12831494D02*
X10559758Y-12841018D01*
X10559758Y-12841018D02*
X10569282Y-12860066D01*
X10569282Y-12860066D02*
X10569282Y-12907685D01*
X10569282Y-12907685D02*
X10559758Y-12926732D01*
X10559758Y-12926732D02*
X10550234Y-12936256D01*
X10550234Y-12936256D02*
X10531187Y-12945780D01*
X10531187Y-12945780D02*
X10483568Y-12945780D01*
X10483568Y-12945780D02*
X10464520Y-12936256D01*
X10464520Y-12936256D02*
X10454996Y-12926732D01*
X10693092Y-12745780D02*
X10712139Y-12745780D01*
X10712139Y-12745780D02*
X10731187Y-12755304D01*
X10731187Y-12755304D02*
X10740711Y-12764828D01*
X10740711Y-12764828D02*
X10750234Y-12783875D01*
X10750234Y-12783875D02*
X10759758Y-12821971D01*
X10759758Y-12821971D02*
X10759758Y-12869590D01*
X10759758Y-12869590D02*
X10750234Y-12907685D01*
X10750234Y-12907685D02*
X10740711Y-12926732D01*
X10740711Y-12926732D02*
X10731187Y-12936256D01*
X10731187Y-12936256D02*
X10712139Y-12945780D01*
X10712139Y-12945780D02*
X10693092Y-12945780D01*
X10693092Y-12945780D02*
X10674044Y-12936256D01*
X10674044Y-12936256D02*
X10664520Y-12926732D01*
X10664520Y-12926732D02*
X10654996Y-12907685D01*
X10654996Y-12907685D02*
X10645473Y-12869590D01*
X10645473Y-12869590D02*
X10645473Y-12821971D01*
X10645473Y-12821971D02*
X10654996Y-12783875D01*
X10654996Y-12783875D02*
X10664520Y-12764828D01*
X10664520Y-12764828D02*
X10674044Y-12755304D01*
X10674044Y-12755304D02*
X10693092Y-12745780D01*
X10845473Y-12945780D02*
X10845473Y-12812447D01*
X10845473Y-12831494D02*
X10854996Y-12821971D01*
X10854996Y-12821971D02*
X10874044Y-12812447D01*
X10874044Y-12812447D02*
X10902615Y-12812447D01*
X10902615Y-12812447D02*
X10921663Y-12821971D01*
X10921663Y-12821971D02*
X10931187Y-12841018D01*
X10931187Y-12841018D02*
X10931187Y-12945780D01*
X10931187Y-12841018D02*
X10940711Y-12821971D01*
X10940711Y-12821971D02*
X10959758Y-12812447D01*
X10959758Y-12812447D02*
X10988330Y-12812447D01*
X10988330Y-12812447D02*
X11007377Y-12821971D01*
X11007377Y-12821971D02*
X11016901Y-12841018D01*
X11016901Y-12841018D02*
X11016901Y-12945780D01*
X11112139Y-12945780D02*
X11112139Y-12812447D01*
X11112139Y-12831494D02*
X11121663Y-12821971D01*
X11121663Y-12821971D02*
X11140711Y-12812447D01*
X11140711Y-12812447D02*
X11169282Y-12812447D01*
X11169282Y-12812447D02*
X11188330Y-12821971D01*
X11188330Y-12821971D02*
X11197853Y-12841018D01*
X11197853Y-12841018D02*
X11197853Y-12945780D01*
X11197853Y-12841018D02*
X11207377Y-12821971D01*
X11207377Y-12821971D02*
X11226425Y-12812447D01*
X11226425Y-12812447D02*
X11254996Y-12812447D01*
X11254996Y-12812447D02*
X11274044Y-12821971D01*
X11274044Y-12821971D02*
X11283568Y-12841018D01*
X11283568Y-12841018D02*
X11283568Y-12945780D01*
X11674044Y-12736256D02*
X11502615Y-12993399D01*
X11931187Y-12745780D02*
X11950235Y-12745780D01*
X11950235Y-12745780D02*
X11969282Y-12755304D01*
X11969282Y-12755304D02*
X11978806Y-12764828D01*
X11978806Y-12764828D02*
X11988330Y-12783875D01*
X11988330Y-12783875D02*
X11997854Y-12821971D01*
X11997854Y-12821971D02*
X11997854Y-12869590D01*
X11997854Y-12869590D02*
X11988330Y-12907685D01*
X11988330Y-12907685D02*
X11978806Y-12926732D01*
X11978806Y-12926732D02*
X11969282Y-12936256D01*
X11969282Y-12936256D02*
X11950235Y-12945780D01*
X11950235Y-12945780D02*
X11931187Y-12945780D01*
X11931187Y-12945780D02*
X11912139Y-12936256D01*
X11912139Y-12936256D02*
X11902615Y-12926732D01*
X11902615Y-12926732D02*
X11893092Y-12907685D01*
X11893092Y-12907685D02*
X11883568Y-12869590D01*
X11883568Y-12869590D02*
X11883568Y-12821971D01*
X11883568Y-12821971D02*
X11893092Y-12783875D01*
X11893092Y-12783875D02*
X11902615Y-12764828D01*
X11902615Y-12764828D02*
X11912139Y-12755304D01*
X11912139Y-12755304D02*
X11931187Y-12745780D01*
X12083568Y-12926732D02*
X12093092Y-12936256D01*
X12093092Y-12936256D02*
X12083568Y-12945780D01*
X12083568Y-12945780D02*
X12074044Y-12936256D01*
X12074044Y-12936256D02*
X12083568Y-12926732D01*
X12083568Y-12926732D02*
X12083568Y-12945780D01*
X12216901Y-12745780D02*
X12235949Y-12745780D01*
X12235949Y-12745780D02*
X12254996Y-12755304D01*
X12254996Y-12755304D02*
X12264520Y-12764828D01*
X12264520Y-12764828D02*
X12274044Y-12783875D01*
X12274044Y-12783875D02*
X12283568Y-12821971D01*
X12283568Y-12821971D02*
X12283568Y-12869590D01*
X12283568Y-12869590D02*
X12274044Y-12907685D01*
X12274044Y-12907685D02*
X12264520Y-12926732D01*
X12264520Y-12926732D02*
X12254996Y-12936256D01*
X12254996Y-12936256D02*
X12235949Y-12945780D01*
X12235949Y-12945780D02*
X12216901Y-12945780D01*
X12216901Y-12945780D02*
X12197854Y-12936256D01*
X12197854Y-12936256D02*
X12188330Y-12926732D01*
X12188330Y-12926732D02*
X12178806Y-12907685D01*
X12178806Y-12907685D02*
X12169282Y-12869590D01*
X12169282Y-12869590D02*
X12169282Y-12821971D01*
X12169282Y-12821971D02*
X12178806Y-12783875D01*
X12178806Y-12783875D02*
X12188330Y-12764828D01*
X12188330Y-12764828D02*
X12197854Y-12755304D01*
X12197854Y-12755304D02*
X12216901Y-12745780D01*
X12359758Y-12764828D02*
X12369282Y-12755304D01*
X12369282Y-12755304D02*
X12388330Y-12745780D01*
X12388330Y-12745780D02*
X12435949Y-12745780D01*
X12435949Y-12745780D02*
X12454996Y-12755304D01*
X12454996Y-12755304D02*
X12464520Y-12764828D01*
X12464520Y-12764828D02*
X12474044Y-12783875D01*
X12474044Y-12783875D02*
X12474044Y-12802923D01*
X12474044Y-12802923D02*
X12464520Y-12831494D01*
X12464520Y-12831494D02*
X12350235Y-12945780D01*
X12350235Y-12945780D02*
X12474044Y-12945780D01*
X12654996Y-12745780D02*
X12559758Y-12745780D01*
X12559758Y-12745780D02*
X12550235Y-12841018D01*
X12550235Y-12841018D02*
X12559758Y-12831494D01*
X12559758Y-12831494D02*
X12578806Y-12821971D01*
X12578806Y-12821971D02*
X12626425Y-12821971D01*
X12626425Y-12821971D02*
X12645473Y-12831494D01*
X12645473Y-12831494D02*
X12654996Y-12841018D01*
X12654996Y-12841018D02*
X12664520Y-12860066D01*
X12664520Y-12860066D02*
X12664520Y-12907685D01*
X12664520Y-12907685D02*
X12654996Y-12926732D01*
X12654996Y-12926732D02*
X12645473Y-12936256D01*
X12645473Y-12936256D02*
X12626425Y-12945780D01*
X12626425Y-12945780D02*
X12578806Y-12945780D01*
X12578806Y-12945780D02*
X12559758Y-12936256D01*
X12559758Y-12936256D02*
X12550235Y-12926732D01*
X12835949Y-12745780D02*
X12797854Y-12745780D01*
X12797854Y-12745780D02*
X12778806Y-12755304D01*
X12778806Y-12755304D02*
X12769282Y-12764828D01*
X12769282Y-12764828D02*
X12750235Y-12793399D01*
X12750235Y-12793399D02*
X12740711Y-12831494D01*
X12740711Y-12831494D02*
X12740711Y-12907685D01*
X12740711Y-12907685D02*
X12750235Y-12926732D01*
X12750235Y-12926732D02*
X12759758Y-12936256D01*
X12759758Y-12936256D02*
X12778806Y-12945780D01*
X12778806Y-12945780D02*
X12816901Y-12945780D01*
X12816901Y-12945780D02*
X12835949Y-12936256D01*
X12835949Y-12936256D02*
X12845473Y-12926732D01*
X12845473Y-12926732D02*
X12854996Y-12907685D01*
X12854996Y-12907685D02*
X12854996Y-12860066D01*
X12854996Y-12860066D02*
X12845473Y-12841018D01*
X12845473Y-12841018D02*
X12835949Y-12831494D01*
X12835949Y-12831494D02*
X12816901Y-12821971D01*
X12816901Y-12821971D02*
X12778806Y-12821971D01*
X12778806Y-12821971D02*
X12759758Y-12831494D01*
X12759758Y-12831494D02*
X12750235Y-12841018D01*
X12750235Y-12841018D02*
X12740711Y-12860066D01*
X12931187Y-12745780D02*
X12931187Y-12783875D01*
X13007377Y-12745780D02*
X13007377Y-12783875D01*
X13302616Y-13021971D02*
X13293092Y-13012447D01*
X13293092Y-13012447D02*
X13274044Y-12983875D01*
X13274044Y-12983875D02*
X13264520Y-12964828D01*
X13264520Y-12964828D02*
X13254997Y-12936256D01*
X13254997Y-12936256D02*
X13245473Y-12888637D01*
X13245473Y-12888637D02*
X13245473Y-12850542D01*
X13245473Y-12850542D02*
X13254997Y-12802923D01*
X13254997Y-12802923D02*
X13264520Y-12774352D01*
X13264520Y-12774352D02*
X13274044Y-12755304D01*
X13274044Y-12755304D02*
X13293092Y-12726732D01*
X13293092Y-12726732D02*
X13302616Y-12717209D01*
X13369282Y-12764828D02*
X13378806Y-12755304D01*
X13378806Y-12755304D02*
X13397854Y-12745780D01*
X13397854Y-12745780D02*
X13445473Y-12745780D01*
X13445473Y-12745780D02*
X13464520Y-12755304D01*
X13464520Y-12755304D02*
X13474044Y-12764828D01*
X13474044Y-12764828D02*
X13483568Y-12783875D01*
X13483568Y-12783875D02*
X13483568Y-12802923D01*
X13483568Y-12802923D02*
X13474044Y-12831494D01*
X13474044Y-12831494D02*
X13359758Y-12945780D01*
X13359758Y-12945780D02*
X13483568Y-12945780D01*
X13721663Y-12945780D02*
X13721663Y-12745780D01*
X13807378Y-12945780D02*
X13807378Y-12841018D01*
X13807378Y-12841018D02*
X13797854Y-12821971D01*
X13797854Y-12821971D02*
X13778806Y-12812447D01*
X13778806Y-12812447D02*
X13750235Y-12812447D01*
X13750235Y-12812447D02*
X13731187Y-12821971D01*
X13731187Y-12821971D02*
X13721663Y-12831494D01*
X13931187Y-12945780D02*
X13912139Y-12936256D01*
X13912139Y-12936256D02*
X13902616Y-12926732D01*
X13902616Y-12926732D02*
X13893092Y-12907685D01*
X13893092Y-12907685D02*
X13893092Y-12850542D01*
X13893092Y-12850542D02*
X13902616Y-12831494D01*
X13902616Y-12831494D02*
X13912139Y-12821971D01*
X13912139Y-12821971D02*
X13931187Y-12812447D01*
X13931187Y-12812447D02*
X13959759Y-12812447D01*
X13959759Y-12812447D02*
X13978806Y-12821971D01*
X13978806Y-12821971D02*
X13988330Y-12831494D01*
X13988330Y-12831494D02*
X13997854Y-12850542D01*
X13997854Y-12850542D02*
X13997854Y-12907685D01*
X13997854Y-12907685D02*
X13988330Y-12926732D01*
X13988330Y-12926732D02*
X13978806Y-12936256D01*
X13978806Y-12936256D02*
X13959759Y-12945780D01*
X13959759Y-12945780D02*
X13931187Y-12945780D01*
X14112139Y-12945780D02*
X14093092Y-12936256D01*
X14093092Y-12936256D02*
X14083568Y-12917209D01*
X14083568Y-12917209D02*
X14083568Y-12745780D01*
X14264520Y-12936256D02*
X14245473Y-12945780D01*
X14245473Y-12945780D02*
X14207378Y-12945780D01*
X14207378Y-12945780D02*
X14188330Y-12936256D01*
X14188330Y-12936256D02*
X14178806Y-12917209D01*
X14178806Y-12917209D02*
X14178806Y-12841018D01*
X14178806Y-12841018D02*
X14188330Y-12821971D01*
X14188330Y-12821971D02*
X14207378Y-12812447D01*
X14207378Y-12812447D02*
X14245473Y-12812447D01*
X14245473Y-12812447D02*
X14264520Y-12821971D01*
X14264520Y-12821971D02*
X14274044Y-12841018D01*
X14274044Y-12841018D02*
X14274044Y-12860066D01*
X14274044Y-12860066D02*
X14178806Y-12879113D01*
X14350235Y-12936256D02*
X14369282Y-12945780D01*
X14369282Y-12945780D02*
X14407378Y-12945780D01*
X14407378Y-12945780D02*
X14426425Y-12936256D01*
X14426425Y-12936256D02*
X14435949Y-12917209D01*
X14435949Y-12917209D02*
X14435949Y-12907685D01*
X14435949Y-12907685D02*
X14426425Y-12888637D01*
X14426425Y-12888637D02*
X14407378Y-12879113D01*
X14407378Y-12879113D02*
X14378806Y-12879113D01*
X14378806Y-12879113D02*
X14359759Y-12869590D01*
X14359759Y-12869590D02*
X14350235Y-12850542D01*
X14350235Y-12850542D02*
X14350235Y-12841018D01*
X14350235Y-12841018D02*
X14359759Y-12821971D01*
X14359759Y-12821971D02*
X14378806Y-12812447D01*
X14378806Y-12812447D02*
X14407378Y-12812447D01*
X14407378Y-12812447D02*
X14426425Y-12821971D01*
X14502616Y-13021971D02*
X14512140Y-13012447D01*
X14512140Y-13012447D02*
X14531187Y-12983875D01*
X14531187Y-12983875D02*
X14540711Y-12964828D01*
X14540711Y-12964828D02*
X14550235Y-12936256D01*
X14550235Y-12936256D02*
X14559759Y-12888637D01*
X14559759Y-12888637D02*
X14559759Y-12850542D01*
X14559759Y-12850542D02*
X14550235Y-12802923D01*
X14550235Y-12802923D02*
X14540711Y-12774352D01*
X14540711Y-12774352D02*
X14531187Y-12755304D01*
X14531187Y-12755304D02*
X14512140Y-12726732D01*
X14512140Y-12726732D02*
X14502616Y-12717209D01*
X14864521Y-13021971D02*
X14854997Y-13012447D01*
X14854997Y-13012447D02*
X14835949Y-12983875D01*
X14835949Y-12983875D02*
X14826425Y-12964828D01*
X14826425Y-12964828D02*
X14816901Y-12936256D01*
X14816901Y-12936256D02*
X14807378Y-12888637D01*
X14807378Y-12888637D02*
X14807378Y-12850542D01*
X14807378Y-12850542D02*
X14816901Y-12802923D01*
X14816901Y-12802923D02*
X14826425Y-12774352D01*
X14826425Y-12774352D02*
X14835949Y-12755304D01*
X14835949Y-12755304D02*
X14854997Y-12726732D01*
X14854997Y-12726732D02*
X14864521Y-12717209D01*
X14940711Y-12812447D02*
X14940711Y-12945780D01*
X14940711Y-12831494D02*
X14950235Y-12821971D01*
X14950235Y-12821971D02*
X14969282Y-12812447D01*
X14969282Y-12812447D02*
X14997854Y-12812447D01*
X14997854Y-12812447D02*
X15016901Y-12821971D01*
X15016901Y-12821971D02*
X15026425Y-12841018D01*
X15026425Y-12841018D02*
X15026425Y-12945780D01*
X15150235Y-12945780D02*
X15131187Y-12936256D01*
X15131187Y-12936256D02*
X15121663Y-12926732D01*
X15121663Y-12926732D02*
X15112140Y-12907685D01*
X15112140Y-12907685D02*
X15112140Y-12850542D01*
X15112140Y-12850542D02*
X15121663Y-12831494D01*
X15121663Y-12831494D02*
X15131187Y-12821971D01*
X15131187Y-12821971D02*
X15150235Y-12812447D01*
X15150235Y-12812447D02*
X15178806Y-12812447D01*
X15178806Y-12812447D02*
X15197854Y-12821971D01*
X15197854Y-12821971D02*
X15207378Y-12831494D01*
X15207378Y-12831494D02*
X15216901Y-12850542D01*
X15216901Y-12850542D02*
X15216901Y-12907685D01*
X15216901Y-12907685D02*
X15207378Y-12926732D01*
X15207378Y-12926732D02*
X15197854Y-12936256D01*
X15197854Y-12936256D02*
X15178806Y-12945780D01*
X15178806Y-12945780D02*
X15150235Y-12945780D01*
X15274044Y-12812447D02*
X15350235Y-12812447D01*
X15302616Y-12745780D02*
X15302616Y-12917209D01*
X15302616Y-12917209D02*
X15312140Y-12936256D01*
X15312140Y-12936256D02*
X15331187Y-12945780D01*
X15331187Y-12945780D02*
X15350235Y-12945780D01*
X15569282Y-12812447D02*
X15569282Y-13012447D01*
X15569282Y-12821971D02*
X15588330Y-12812447D01*
X15588330Y-12812447D02*
X15626425Y-12812447D01*
X15626425Y-12812447D02*
X15645473Y-12821971D01*
X15645473Y-12821971D02*
X15654997Y-12831494D01*
X15654997Y-12831494D02*
X15664521Y-12850542D01*
X15664521Y-12850542D02*
X15664521Y-12907685D01*
X15664521Y-12907685D02*
X15654997Y-12926732D01*
X15654997Y-12926732D02*
X15645473Y-12936256D01*
X15645473Y-12936256D02*
X15626425Y-12945780D01*
X15626425Y-12945780D02*
X15588330Y-12945780D01*
X15588330Y-12945780D02*
X15569282Y-12936256D01*
X15778806Y-12945780D02*
X15759759Y-12936256D01*
X15759759Y-12936256D02*
X15750235Y-12917209D01*
X15750235Y-12917209D02*
X15750235Y-12745780D01*
X15940711Y-12945780D02*
X15940711Y-12841018D01*
X15940711Y-12841018D02*
X15931187Y-12821971D01*
X15931187Y-12821971D02*
X15912140Y-12812447D01*
X15912140Y-12812447D02*
X15874044Y-12812447D01*
X15874044Y-12812447D02*
X15854997Y-12821971D01*
X15940711Y-12936256D02*
X15921663Y-12945780D01*
X15921663Y-12945780D02*
X15874044Y-12945780D01*
X15874044Y-12945780D02*
X15854997Y-12936256D01*
X15854997Y-12936256D02*
X15845473Y-12917209D01*
X15845473Y-12917209D02*
X15845473Y-12898161D01*
X15845473Y-12898161D02*
X15854997Y-12879113D01*
X15854997Y-12879113D02*
X15874044Y-12869590D01*
X15874044Y-12869590D02*
X15921663Y-12869590D01*
X15921663Y-12869590D02*
X15940711Y-12860066D01*
X16007378Y-12812447D02*
X16083568Y-12812447D01*
X16035949Y-12745780D02*
X16035949Y-12917209D01*
X16035949Y-12917209D02*
X16045473Y-12936256D01*
X16045473Y-12936256D02*
X16064521Y-12945780D01*
X16064521Y-12945780D02*
X16083568Y-12945780D01*
X16226425Y-12936256D02*
X16207378Y-12945780D01*
X16207378Y-12945780D02*
X16169282Y-12945780D01*
X16169282Y-12945780D02*
X16150235Y-12936256D01*
X16150235Y-12936256D02*
X16140711Y-12917209D01*
X16140711Y-12917209D02*
X16140711Y-12841018D01*
X16140711Y-12841018D02*
X16150235Y-12821971D01*
X16150235Y-12821971D02*
X16169282Y-12812447D01*
X16169282Y-12812447D02*
X16207378Y-12812447D01*
X16207378Y-12812447D02*
X16226425Y-12821971D01*
X16226425Y-12821971D02*
X16235949Y-12841018D01*
X16235949Y-12841018D02*
X16235949Y-12860066D01*
X16235949Y-12860066D02*
X16140711Y-12879113D01*
X16407378Y-12945780D02*
X16407378Y-12745780D01*
X16407378Y-12936256D02*
X16388330Y-12945780D01*
X16388330Y-12945780D02*
X16350235Y-12945780D01*
X16350235Y-12945780D02*
X16331187Y-12936256D01*
X16331187Y-12936256D02*
X16321663Y-12926732D01*
X16321663Y-12926732D02*
X16312140Y-12907685D01*
X16312140Y-12907685D02*
X16312140Y-12850542D01*
X16312140Y-12850542D02*
X16321663Y-12831494D01*
X16321663Y-12831494D02*
X16331187Y-12821971D01*
X16331187Y-12821971D02*
X16350235Y-12812447D01*
X16350235Y-12812447D02*
X16388330Y-12812447D01*
X16388330Y-12812447D02*
X16407378Y-12821971D01*
X16483568Y-13021971D02*
X16493092Y-13012447D01*
X16493092Y-13012447D02*
X16512140Y-12983875D01*
X16512140Y-12983875D02*
X16521663Y-12964828D01*
X16521663Y-12964828D02*
X16531187Y-12936256D01*
X16531187Y-12936256D02*
X16540711Y-12888637D01*
X16540711Y-12888637D02*
X16540711Y-12850542D01*
X16540711Y-12850542D02*
X16531187Y-12802923D01*
X16531187Y-12802923D02*
X16521663Y-12774352D01*
X16521663Y-12774352D02*
X16512140Y-12755304D01*
X16512140Y-12755304D02*
X16493092Y-12726732D01*
X16493092Y-12726732D02*
X16483568Y-12717209D01*
M02*
