%TF.GenerationSoftware,KiCad,Pcbnew,9.0.6*%
%TF.CreationDate,2026-03-10T13:54:39+05:30*%
%TF.ProjectId,NeuroBand,4e657572-6f42-4616-9e64-2e6b69636164,rev?*%
%TF.SameCoordinates,Original*%
%TF.FileFunction,Copper,L2,Bot*%
%TF.FilePolarity,Positive*%
%FSLAX46Y46*%
G04 Gerber Fmt 4.6, Leading zero omitted, Abs format (unit mm)*
G04 Created by KiCad (PCBNEW 9.0.6) date 2026-03-10 13:54:39*
%MOMM*%
%LPD*%
G01*
G04 APERTURE LIST*
%TA.AperFunction,HeatsinkPad*%
%ADD10C,0.600000*%
%TD*%
%TA.AperFunction,HeatsinkPad*%
%ADD11C,0.500000*%
%TD*%
%TA.AperFunction,HeatsinkPad*%
%ADD12R,1.900000X2.900000*%
%TD*%
%TA.AperFunction,ComponentPad*%
%ADD13O,1.000000X1.600000*%
%TD*%
%TA.AperFunction,ComponentPad*%
%ADD14O,1.000000X2.100000*%
%TD*%
%TA.AperFunction,ViaPad*%
%ADD15C,0.600000*%
%TD*%
%TA.AperFunction,Conductor*%
%ADD16C,0.200000*%
%TD*%
%TA.AperFunction,Conductor*%
%ADD17C,0.500000*%
%TD*%
G04 APERTURE END LIST*
D10*
%TO.P,U2,39,GND*%
%TO.N,GND*%
X118650528Y-79157964D03*
X118650528Y-80557964D03*
X119350528Y-78457964D03*
X119350528Y-79857964D03*
X119350528Y-81257964D03*
X120025528Y-79157964D03*
X120025528Y-80557964D03*
X120750528Y-78457964D03*
X120750528Y-79857964D03*
X120750528Y-81257964D03*
X121450528Y-79157964D03*
X121450528Y-80557964D03*
%TD*%
D11*
%TO.P,U3,9,EPAD*%
%TO.N,unconnected-(U3-EPAD-Pad9)_2*%
X113600528Y-103047964D03*
%TO.N,unconnected-(U3-EPAD-Pad9)_5*%
X113600528Y-104247964D03*
%TO.N,unconnected-(U3-EPAD-Pad9)_4*%
X113600528Y-105447964D03*
D12*
%TO.N,unconnected-(U3-EPAD-Pad9)*%
X114300528Y-104247964D03*
D11*
%TO.N,unconnected-(U3-EPAD-Pad9)_3*%
X115000528Y-103047964D03*
%TO.N,unconnected-(U3-EPAD-Pad9)_7*%
X115000528Y-104247964D03*
%TO.N,unconnected-(U3-EPAD-Pad9)_1*%
X115000528Y-105447964D03*
%TD*%
D13*
%TO.P,J2,NC1,NC*%
%TO.N,unconnected-(J2-NC-PadNC1)*%
X109689528Y-118817964D03*
D14*
%TO.P,J2,NC2,NC*%
%TO.N,unconnected-(J2-NC-PadNC2)*%
X109689528Y-114637964D03*
%TO.P,J2,NC3,NC*%
%TO.N,unconnected-(J2-NC-PadNC3)*%
X118325528Y-114637964D03*
D13*
%TO.P,J2,S,SHIELD*%
%TO.N,unconnected-(J2-SHIELD-PadS)*%
X118325528Y-118817964D03*
%TD*%
D15*
%TO.N,GND*%
X111725528Y-111867964D03*
X131550000Y-83350000D03*
X105850000Y-106625000D03*
X133850000Y-78450000D03*
X108900528Y-86492964D03*
X128775000Y-71825000D03*
%TO.N,+3.3V*%
X118800000Y-111833718D03*
X121875528Y-110717964D03*
%TO.N,Electrode-*%
X126200000Y-101792964D03*
X137050528Y-95225000D03*
%TO.N,Electrode+*%
X131384246Y-91734246D03*
X126225000Y-99575000D03*
%TO.N,EN*%
X106850528Y-78025000D03*
X106775000Y-80625000D03*
%TD*%
D16*
%TO.N,GND*%
X101293492Y-106625000D02*
X101225528Y-106692964D01*
D17*
%TO.N,+3.3V*%
X119209774Y-111833718D02*
X120325528Y-110717964D01*
X120325528Y-110717964D02*
X121875528Y-110717964D01*
X118800000Y-111833718D02*
X119209774Y-111833718D01*
D16*
%TO.N,Electrode-*%
X137050528Y-95225000D02*
X137050528Y-95299472D01*
X130557036Y-101792964D02*
X126200000Y-101792964D01*
X137050528Y-95299472D02*
X130557036Y-101792964D01*
%TO.N,Electrode+*%
X126575000Y-99225000D02*
X126225000Y-99575000D01*
X126575000Y-96543492D02*
X126575000Y-99225000D01*
X131384246Y-91734246D02*
X126575000Y-96543492D01*
%TO.N,EN*%
X106775000Y-80625000D02*
X106775000Y-78100528D01*
X106775000Y-78100528D02*
X106850528Y-78025000D01*
%TD*%
%TA.AperFunction,Conductor*%
%TO.N,GND*%
G36*
X135533657Y-71038149D02*
G01*
X135554067Y-71054551D01*
X141258931Y-76729390D01*
X141369029Y-76838908D01*
X141402675Y-76900142D01*
X141405578Y-76926226D01*
X141592345Y-115890638D01*
X141572982Y-115957771D01*
X141556027Y-115978913D01*
X135653797Y-121881145D01*
X135592474Y-121914630D01*
X135566116Y-121917464D01*
X103409940Y-121917464D01*
X103342901Y-121897779D01*
X103322259Y-121881145D01*
X100628073Y-119186959D01*
X108989027Y-119186959D01*
X109015946Y-119322286D01*
X109015949Y-119322296D01*
X109068749Y-119449768D01*
X109068756Y-119449781D01*
X109145413Y-119564505D01*
X109145416Y-119564509D01*
X109242982Y-119662075D01*
X109242986Y-119662078D01*
X109357710Y-119738735D01*
X109357723Y-119738742D01*
X109485195Y-119791542D01*
X109485200Y-119791544D01*
X109485204Y-119791544D01*
X109485205Y-119791545D01*
X109620532Y-119818464D01*
X109620535Y-119818464D01*
X109758523Y-119818464D01*
X109849569Y-119800353D01*
X109893856Y-119791544D01*
X110021339Y-119738739D01*
X110136070Y-119662078D01*
X110233642Y-119564506D01*
X110310303Y-119449775D01*
X110363108Y-119322292D01*
X110390028Y-119186959D01*
X117625027Y-119186959D01*
X117651946Y-119322286D01*
X117651949Y-119322296D01*
X117704749Y-119449768D01*
X117704756Y-119449781D01*
X117781413Y-119564505D01*
X117781416Y-119564509D01*
X117878982Y-119662075D01*
X117878986Y-119662078D01*
X117993710Y-119738735D01*
X117993723Y-119738742D01*
X118121195Y-119791542D01*
X118121200Y-119791544D01*
X118121204Y-119791544D01*
X118121205Y-119791545D01*
X118256532Y-119818464D01*
X118256535Y-119818464D01*
X118394523Y-119818464D01*
X118485569Y-119800353D01*
X118529856Y-119791544D01*
X118657339Y-119738739D01*
X118772070Y-119662078D01*
X118869642Y-119564506D01*
X118946303Y-119449775D01*
X118999108Y-119322292D01*
X119026028Y-119186957D01*
X119026028Y-118448971D01*
X119026028Y-118448968D01*
X118999109Y-118313641D01*
X118999108Y-118313640D01*
X118999108Y-118313636D01*
X118999106Y-118313631D01*
X118946306Y-118186159D01*
X118946299Y-118186146D01*
X118869642Y-118071422D01*
X118869639Y-118071418D01*
X118772073Y-117973852D01*
X118772069Y-117973849D01*
X118657345Y-117897192D01*
X118657332Y-117897185D01*
X118529860Y-117844385D01*
X118529850Y-117844382D01*
X118394523Y-117817464D01*
X118394521Y-117817464D01*
X118256535Y-117817464D01*
X118256533Y-117817464D01*
X118121205Y-117844382D01*
X118121195Y-117844385D01*
X117993723Y-117897185D01*
X117993710Y-117897192D01*
X117878986Y-117973849D01*
X117878982Y-117973852D01*
X117781416Y-118071418D01*
X117781413Y-118071422D01*
X117704756Y-118186146D01*
X117704749Y-118186159D01*
X117651949Y-118313631D01*
X117651946Y-118313641D01*
X117625028Y-118448968D01*
X117625028Y-118448971D01*
X117625028Y-119186957D01*
X117625028Y-119186959D01*
X117625027Y-119186959D01*
X110390028Y-119186959D01*
X110390028Y-119186957D01*
X110390028Y-118448971D01*
X110390028Y-118448968D01*
X110363109Y-118313641D01*
X110363108Y-118313640D01*
X110363108Y-118313636D01*
X110363106Y-118313631D01*
X110310306Y-118186159D01*
X110310299Y-118186146D01*
X110233642Y-118071422D01*
X110233639Y-118071418D01*
X110136073Y-117973852D01*
X110136069Y-117973849D01*
X110021345Y-117897192D01*
X110021332Y-117897185D01*
X109893860Y-117844385D01*
X109893850Y-117844382D01*
X109758523Y-117817464D01*
X109758521Y-117817464D01*
X109620535Y-117817464D01*
X109620533Y-117817464D01*
X109485205Y-117844382D01*
X109485195Y-117844385D01*
X109357723Y-117897185D01*
X109357710Y-117897192D01*
X109242986Y-117973849D01*
X109242982Y-117973852D01*
X109145416Y-118071418D01*
X109145413Y-118071422D01*
X109068756Y-118186146D01*
X109068749Y-118186159D01*
X109015949Y-118313631D01*
X109015946Y-118313641D01*
X108989028Y-118448968D01*
X108989028Y-118448971D01*
X108989028Y-119186957D01*
X108989028Y-119186959D01*
X108989027Y-119186959D01*
X100628073Y-119186959D01*
X97537347Y-116096233D01*
X97503862Y-116034910D01*
X97501028Y-116008552D01*
X97501028Y-115256959D01*
X108989027Y-115256959D01*
X109015946Y-115392286D01*
X109015949Y-115392296D01*
X109068749Y-115519768D01*
X109068756Y-115519781D01*
X109145413Y-115634505D01*
X109145416Y-115634509D01*
X109242982Y-115732075D01*
X109242986Y-115732078D01*
X109357710Y-115808735D01*
X109357723Y-115808742D01*
X109485195Y-115861542D01*
X109485200Y-115861544D01*
X109485204Y-115861544D01*
X109485205Y-115861545D01*
X109620532Y-115888464D01*
X109620535Y-115888464D01*
X109758523Y-115888464D01*
X109849569Y-115870353D01*
X109893856Y-115861544D01*
X110021339Y-115808739D01*
X110136070Y-115732078D01*
X110233642Y-115634506D01*
X110310303Y-115519775D01*
X110363108Y-115392292D01*
X110374604Y-115334499D01*
X110406988Y-115272588D01*
X110467704Y-115238014D01*
X110537473Y-115241753D01*
X110594146Y-115282619D01*
X110615995Y-115326594D01*
X110618113Y-115334497D01*
X110627840Y-115370801D01*
X110627841Y-115370802D01*
X110697020Y-115490625D01*
X110697022Y-115490628D01*
X110697023Y-115490629D01*
X110794863Y-115588469D01*
X110914692Y-115657652D01*
X111048345Y-115693464D01*
X111048347Y-115693464D01*
X111186709Y-115693464D01*
X111186711Y-115693464D01*
X111320364Y-115657652D01*
X111440193Y-115588469D01*
X111538033Y-115490629D01*
X111607216Y-115370800D01*
X111643028Y-115237147D01*
X111643028Y-115098781D01*
X116372028Y-115098781D01*
X116372028Y-115237147D01*
X116407840Y-115370798D01*
X116407840Y-115370799D01*
X116407841Y-115370802D01*
X116477020Y-115490625D01*
X116477022Y-115490628D01*
X116477023Y-115490629D01*
X116574863Y-115588469D01*
X116694692Y-115657652D01*
X116828345Y-115693464D01*
X116828347Y-115693464D01*
X116966709Y-115693464D01*
X116966711Y-115693464D01*
X117100364Y-115657652D01*
X117220193Y-115588469D01*
X117318033Y-115490629D01*
X117387216Y-115370800D01*
X117399060Y-115326595D01*
X117435423Y-115266937D01*
X117498269Y-115236407D01*
X117567645Y-115244701D01*
X117621523Y-115289186D01*
X117640451Y-115334497D01*
X117651947Y-115392287D01*
X117651949Y-115392296D01*
X117704749Y-115519768D01*
X117704756Y-115519781D01*
X117781413Y-115634505D01*
X117781416Y-115634509D01*
X117878982Y-115732075D01*
X117878986Y-115732078D01*
X117993710Y-115808735D01*
X117993723Y-115808742D01*
X118121195Y-115861542D01*
X118121200Y-115861544D01*
X118121204Y-115861544D01*
X118121205Y-115861545D01*
X118256532Y-115888464D01*
X118256535Y-115888464D01*
X118394523Y-115888464D01*
X118485569Y-115870353D01*
X118529856Y-115861544D01*
X118657339Y-115808739D01*
X118772070Y-115732078D01*
X118869642Y-115634506D01*
X118946303Y-115519775D01*
X118999108Y-115392292D01*
X119010604Y-115334497D01*
X119026028Y-115256959D01*
X119026028Y-114018968D01*
X118999109Y-113883641D01*
X118999108Y-113883640D01*
X118999108Y-113883636D01*
X118999106Y-113883631D01*
X118946306Y-113756159D01*
X118946299Y-113756146D01*
X118869642Y-113641422D01*
X118869639Y-113641418D01*
X118772073Y-113543852D01*
X118772069Y-113543849D01*
X118657345Y-113467192D01*
X118657332Y-113467185D01*
X118529860Y-113414385D01*
X118529850Y-113414382D01*
X118394523Y-113387464D01*
X118394521Y-113387464D01*
X118256535Y-113387464D01*
X118256533Y-113387464D01*
X118121205Y-113414382D01*
X118121195Y-113414385D01*
X117993723Y-113467185D01*
X117993710Y-113467192D01*
X117878986Y-113543849D01*
X117878982Y-113543852D01*
X117781416Y-113641418D01*
X117781413Y-113641422D01*
X117704756Y-113756146D01*
X117704749Y-113756159D01*
X117651949Y-113883631D01*
X117651946Y-113883641D01*
X117625028Y-114018968D01*
X117625028Y-114915867D01*
X117605343Y-114982906D01*
X117552539Y-115028661D01*
X117483381Y-115038605D01*
X117419825Y-115009580D01*
X117392386Y-114971528D01*
X117391280Y-114972167D01*
X117318035Y-114845302D01*
X117318031Y-114845297D01*
X117220194Y-114747460D01*
X117220189Y-114747456D01*
X117100366Y-114678277D01*
X117100365Y-114678276D01*
X117100364Y-114678276D01*
X116966711Y-114642464D01*
X116828345Y-114642464D01*
X116694692Y-114678276D01*
X116694689Y-114678277D01*
X116574866Y-114747456D01*
X116574861Y-114747460D01*
X116477024Y-114845297D01*
X116477020Y-114845302D01*
X116407841Y-114965125D01*
X116407840Y-114965128D01*
X116372028Y-115098781D01*
X111643028Y-115098781D01*
X111607216Y-114965128D01*
X111538033Y-114845299D01*
X111440193Y-114747459D01*
X111440192Y-114747458D01*
X111440189Y-114747456D01*
X111320366Y-114678277D01*
X111320365Y-114678276D01*
X111320364Y-114678276D01*
X111186711Y-114642464D01*
X111048345Y-114642464D01*
X110914692Y-114678276D01*
X110914689Y-114678277D01*
X110794866Y-114747456D01*
X110794861Y-114747460D01*
X110697024Y-114845297D01*
X110697020Y-114845302D01*
X110623776Y-114972167D01*
X110622194Y-114971254D01*
X110584748Y-115017723D01*
X110518454Y-115039788D01*
X110450755Y-115022509D01*
X110403144Y-114971372D01*
X110390028Y-114915867D01*
X110390028Y-114018968D01*
X110363109Y-113883641D01*
X110363108Y-113883640D01*
X110363108Y-113883636D01*
X110363106Y-113883631D01*
X110310306Y-113756159D01*
X110310299Y-113756146D01*
X110233642Y-113641422D01*
X110233639Y-113641418D01*
X110136073Y-113543852D01*
X110136069Y-113543849D01*
X110021345Y-113467192D01*
X110021332Y-113467185D01*
X109893860Y-113414385D01*
X109893850Y-113414382D01*
X109758523Y-113387464D01*
X109758521Y-113387464D01*
X109620535Y-113387464D01*
X109620533Y-113387464D01*
X109485205Y-113414382D01*
X109485195Y-113414385D01*
X109357723Y-113467185D01*
X109357710Y-113467192D01*
X109242986Y-113543849D01*
X109242982Y-113543852D01*
X109145416Y-113641418D01*
X109145413Y-113641422D01*
X109068756Y-113756146D01*
X109068749Y-113756159D01*
X109015949Y-113883631D01*
X109015946Y-113883641D01*
X108989028Y-114018968D01*
X108989028Y-114018971D01*
X108989028Y-115256957D01*
X108989028Y-115256959D01*
X108989027Y-115256959D01*
X97501028Y-115256959D01*
X97501028Y-111767826D01*
X118299500Y-111767826D01*
X118299500Y-111899609D01*
X118333608Y-112026905D01*
X118366554Y-112083968D01*
X118399500Y-112141032D01*
X118492686Y-112234218D01*
X118591521Y-112291281D01*
X118601425Y-112296999D01*
X118606814Y-112300110D01*
X118734108Y-112334218D01*
X118734110Y-112334218D01*
X118865890Y-112334218D01*
X118865892Y-112334218D01*
X118993186Y-112300110D01*
X118993194Y-112300105D01*
X119000696Y-112296999D01*
X119001249Y-112298336D01*
X119053937Y-112284218D01*
X119269082Y-112284218D01*
X119269083Y-112284218D01*
X119359447Y-112260004D01*
X119383661Y-112253517D01*
X119486388Y-112194207D01*
X120475812Y-111204783D01*
X120537135Y-111171298D01*
X120563493Y-111168464D01*
X121621591Y-111168464D01*
X121674278Y-111182582D01*
X121674832Y-111181245D01*
X121682335Y-111184352D01*
X121682342Y-111184356D01*
X121809636Y-111218464D01*
X121809638Y-111218464D01*
X121941418Y-111218464D01*
X121941420Y-111218464D01*
X122068714Y-111184356D01*
X122182842Y-111118464D01*
X122276028Y-111025278D01*
X122341920Y-110911150D01*
X122376028Y-110783856D01*
X122376028Y-110652072D01*
X122341920Y-110524778D01*
X122276028Y-110410650D01*
X122182842Y-110317464D01*
X122096240Y-110267464D01*
X122068715Y-110251572D01*
X122005067Y-110234518D01*
X121941420Y-110217464D01*
X121809636Y-110217464D01*
X121682342Y-110251572D01*
X121674832Y-110254683D01*
X121674278Y-110253345D01*
X121621591Y-110267464D01*
X120266219Y-110267464D01*
X120197472Y-110285884D01*
X120151640Y-110298165D01*
X120151635Y-110298168D01*
X120108223Y-110323231D01*
X120108224Y-110323232D01*
X120048917Y-110357472D01*
X120048911Y-110357477D01*
X119079990Y-111326398D01*
X119018667Y-111359883D01*
X118960216Y-111358492D01*
X118865892Y-111333218D01*
X118734108Y-111333218D01*
X118606812Y-111367326D01*
X118492686Y-111433218D01*
X118492683Y-111433220D01*
X118399502Y-111526401D01*
X118399500Y-111526404D01*
X118333608Y-111640530D01*
X118299500Y-111767826D01*
X97501028Y-111767826D01*
X97501028Y-102778211D01*
X113150028Y-102778211D01*
X113150028Y-105717716D01*
X113161659Y-105776193D01*
X113161660Y-105776194D01*
X113205975Y-105842516D01*
X113272297Y-105886831D01*
X113272298Y-105886832D01*
X113330775Y-105898463D01*
X113330778Y-105898464D01*
X113330780Y-105898464D01*
X115270278Y-105898464D01*
X115270279Y-105898463D01*
X115285096Y-105895516D01*
X115328757Y-105886832D01*
X115328757Y-105886831D01*
X115328759Y-105886831D01*
X115395080Y-105842516D01*
X115439395Y-105776195D01*
X115439395Y-105776193D01*
X115439396Y-105776193D01*
X115451027Y-105717716D01*
X115451028Y-105717714D01*
X115451028Y-102778213D01*
X115451027Y-102778211D01*
X115439396Y-102719734D01*
X115439395Y-102719733D01*
X115395080Y-102653411D01*
X115328758Y-102609096D01*
X115328757Y-102609095D01*
X115270280Y-102597464D01*
X115270276Y-102597464D01*
X113330780Y-102597464D01*
X113330775Y-102597464D01*
X113272298Y-102609095D01*
X113272297Y-102609096D01*
X113205975Y-102653411D01*
X113161660Y-102719733D01*
X113161659Y-102719734D01*
X113150028Y-102778211D01*
X97501028Y-102778211D01*
X97501028Y-101727072D01*
X125699500Y-101727072D01*
X125699500Y-101858855D01*
X125733608Y-101986151D01*
X125760902Y-102033424D01*
X125799500Y-102100278D01*
X125892686Y-102193464D01*
X126006814Y-102259356D01*
X126134108Y-102293464D01*
X126134110Y-102293464D01*
X126265890Y-102293464D01*
X126265892Y-102293464D01*
X126393186Y-102259356D01*
X126507314Y-102193464D01*
X126570995Y-102129783D01*
X126632318Y-102096298D01*
X126658676Y-102093464D01*
X130596596Y-102093464D01*
X130596598Y-102093464D01*
X130673025Y-102072985D01*
X130741547Y-102033424D01*
X130797496Y-101977475D01*
X137013152Y-95761819D01*
X137074475Y-95728334D01*
X137100833Y-95725500D01*
X137116418Y-95725500D01*
X137116420Y-95725500D01*
X137243714Y-95691392D01*
X137357842Y-95625500D01*
X137451028Y-95532314D01*
X137516920Y-95418186D01*
X137551028Y-95290892D01*
X137551028Y-95159108D01*
X137516920Y-95031814D01*
X137451028Y-94917686D01*
X137357842Y-94824500D01*
X137300778Y-94791554D01*
X137243715Y-94758608D01*
X137180067Y-94741554D01*
X137116420Y-94724500D01*
X136984636Y-94724500D01*
X136857340Y-94758608D01*
X136743214Y-94824500D01*
X136743211Y-94824502D01*
X136650030Y-94917683D01*
X136650028Y-94917686D01*
X136584136Y-95031812D01*
X136550028Y-95159108D01*
X136550028Y-95290890D01*
X136551089Y-95298948D01*
X136549009Y-95299221D01*
X136547608Y-95357930D01*
X136517179Y-95407848D01*
X130468884Y-101456145D01*
X130407561Y-101489630D01*
X130381203Y-101492464D01*
X126658676Y-101492464D01*
X126591637Y-101472779D01*
X126570995Y-101456145D01*
X126507316Y-101392466D01*
X126507314Y-101392464D01*
X126450250Y-101359518D01*
X126393187Y-101326572D01*
X126329539Y-101309518D01*
X126265892Y-101292464D01*
X126134108Y-101292464D01*
X126006812Y-101326572D01*
X125892686Y-101392464D01*
X125892683Y-101392466D01*
X125799502Y-101485647D01*
X125799500Y-101485650D01*
X125733608Y-101599776D01*
X125699500Y-101727072D01*
X97501028Y-101727072D01*
X97501028Y-99509108D01*
X125724500Y-99509108D01*
X125724500Y-99640891D01*
X125758608Y-99768187D01*
X125791554Y-99825250D01*
X125824500Y-99882314D01*
X125917686Y-99975500D01*
X126031814Y-100041392D01*
X126159108Y-100075500D01*
X126159110Y-100075500D01*
X126290890Y-100075500D01*
X126290892Y-100075500D01*
X126418186Y-100041392D01*
X126532314Y-99975500D01*
X126625500Y-99882314D01*
X126691392Y-99768186D01*
X126725500Y-99640892D01*
X126725500Y-99550833D01*
X126745185Y-99483794D01*
X126761819Y-99463151D01*
X126815460Y-99409511D01*
X126855022Y-99340988D01*
X126875500Y-99264562D01*
X126875500Y-99185438D01*
X126875500Y-96719324D01*
X126895185Y-96652285D01*
X126911814Y-96631648D01*
X131272397Y-92271064D01*
X131333720Y-92237580D01*
X131360078Y-92234746D01*
X131450136Y-92234746D01*
X131450138Y-92234746D01*
X131577432Y-92200638D01*
X131691560Y-92134746D01*
X131784746Y-92041560D01*
X131850638Y-91927432D01*
X131884746Y-91800138D01*
X131884746Y-91668354D01*
X131850638Y-91541060D01*
X131784746Y-91426932D01*
X131691560Y-91333746D01*
X131634496Y-91300800D01*
X131577433Y-91267854D01*
X131513785Y-91250800D01*
X131450138Y-91233746D01*
X131318354Y-91233746D01*
X131191058Y-91267854D01*
X131076932Y-91333746D01*
X131076929Y-91333748D01*
X130983748Y-91426929D01*
X130983746Y-91426932D01*
X130917854Y-91541058D01*
X130883746Y-91668354D01*
X130883746Y-91758412D01*
X130864061Y-91825451D01*
X130847427Y-91846093D01*
X126390489Y-96303032D01*
X126334541Y-96358979D01*
X126334535Y-96358987D01*
X126294982Y-96427496D01*
X126294979Y-96427501D01*
X126274500Y-96503931D01*
X126274500Y-98950563D01*
X126254815Y-99017602D01*
X126202011Y-99063357D01*
X126166690Y-99073502D01*
X126159107Y-99074500D01*
X126031812Y-99108608D01*
X125917686Y-99174500D01*
X125917683Y-99174502D01*
X125824502Y-99267683D01*
X125824500Y-99267686D01*
X125758608Y-99381812D01*
X125724500Y-99509108D01*
X97501028Y-99509108D01*
X97501028Y-80559108D01*
X106274500Y-80559108D01*
X106274500Y-80690891D01*
X106308608Y-80818187D01*
X106341554Y-80875250D01*
X106374500Y-80932314D01*
X106467686Y-81025500D01*
X106581814Y-81091392D01*
X106709108Y-81125500D01*
X106709110Y-81125500D01*
X106840890Y-81125500D01*
X106840892Y-81125500D01*
X106968186Y-81091392D01*
X107082314Y-81025500D01*
X107175500Y-80932314D01*
X107241392Y-80818186D01*
X107275500Y-80690892D01*
X107275500Y-80559108D01*
X107241392Y-80431814D01*
X107175500Y-80317686D01*
X107111818Y-80254004D01*
X107078334Y-80192680D01*
X107075500Y-80166323D01*
X107075500Y-78544631D01*
X107095185Y-78477592D01*
X107137501Y-78437243D01*
X107157842Y-78425500D01*
X107251028Y-78332314D01*
X107316920Y-78218186D01*
X107351028Y-78090892D01*
X107351028Y-77959108D01*
X107316920Y-77831814D01*
X107251028Y-77717686D01*
X107157842Y-77624500D01*
X107100778Y-77591554D01*
X107043715Y-77558608D01*
X106980067Y-77541554D01*
X106916420Y-77524500D01*
X106784636Y-77524500D01*
X106657340Y-77558608D01*
X106543214Y-77624500D01*
X106543211Y-77624502D01*
X106450030Y-77717683D01*
X106450028Y-77717686D01*
X106384136Y-77831812D01*
X106350028Y-77959108D01*
X106350028Y-78090891D01*
X106384136Y-78218187D01*
X106418487Y-78277684D01*
X106450028Y-78332314D01*
X106450029Y-78332315D01*
X106454092Y-78339352D01*
X106452525Y-78340256D01*
X106474069Y-78395972D01*
X106474500Y-78406298D01*
X106474500Y-80166323D01*
X106454815Y-80233362D01*
X106438182Y-80254004D01*
X106374500Y-80317686D01*
X106308608Y-80431812D01*
X106274500Y-80559108D01*
X97501028Y-80559108D01*
X97501028Y-76977376D01*
X97520713Y-76910337D01*
X97537347Y-76889695D01*
X103372259Y-71054783D01*
X103433582Y-71021298D01*
X103459940Y-71018464D01*
X104685646Y-71018464D01*
X104893980Y-71018464D01*
X135466618Y-71018464D01*
X135533657Y-71038149D01*
G37*
%TD.AperFunction*%
%TD*%
M02*
