M48
; DRILL file {KiCad 9.0.6} date 2026-03-10T13:54:57+0530
; FORMAT={-:-/ absolute / metric / decimal}
; #@! TF.CreationDate,2026-03-10T13:54:57+05:30
; #@! TF.GenerationSoftware,Kicad,Pcbnew,9.0.6
; #@! TF.FileFunction,Plated,1,2,PTH
FMAT,2
METRIC
; #@! TA.AperFunction,Plated,PTH,ComponentDrill
T1C0.200
; #@! TA.AperFunction,Plated,PTH,ViaDrill
T2C0.300
; #@! TA.AperFunction,Plated,PTH,ComponentDrill
T3C0.600
%
G90
G05
T1
X113.601Y-103.048
X113.601Y-104.248
X113.601Y-105.448
X115.001Y-103.048
X115.001Y-104.248
X115.001Y-105.448
X118.651Y-79.158
X118.651Y-80.558
X119.351Y-78.458
X119.351Y-79.858
X119.351Y-81.258
X120.026Y-79.158
X120.026Y-80.558
X120.751Y-78.458
X120.751Y-79.858
X120.751Y-81.258
X121.451Y-79.158
X121.451Y-80.558
T2
X105.85Y-106.625
X106.775Y-80.625
X106.851Y-78.025
X108.901Y-86.493
X111.726Y-111.868
X118.8Y-111.834
X121.876Y-110.718
X126.2Y-101.793
X126.225Y-99.575
X128.775Y-71.825
X131.384Y-91.734
X131.55Y-83.35
X133.85Y-78.45
X137.051Y-95.225
T3
G00X109.69Y-114.088
M15
G01X109.69Y-115.188
M16
G05
G00X109.69Y-118.518
M15
G01X109.69Y-119.118
M16
G05
G00X118.326Y-114.088
M15
G01X118.326Y-115.188
M16
G05
G00X118.326Y-118.518
M15
G01X118.326Y-119.118
M16
G05
M30
